<?xml version="1.0" encoding="UTF-8"?>
<!DOCTYPE svg PUBLIC "-//W3C//DTD SVG 1.1//EN" "http://www.w3.org/Graphics/SVG/1.1/DTD/svg11.dtd">
<svg xmlns="http://www.w3.org/2000/svg" version="1.1" width="2058px" height="369px" style="shape-rendering:geometricPrecision; text-rendering:geometricPrecision; image-rendering:optimizeQuality; fill-rule:evenodd; clip-rule:evenodd" xmlns:xlink="http://www.w3.org/1999/xlink">
<g><path style="opacity:0.989" fill="#000000" d="M 1227.5,-0.5 C 1345.5,-0.5 1463.5,-0.5 1581.5,-0.5C 1577.5,16.8333 1573.5,34.1667 1569.5,51.5C 1470.5,51.3333 1371.5,51.5 1272.5,52C 1267.27,54.2315 1263.77,58.0648 1262,63.5C 1257.75,80.985 1253.59,98.485 1249.5,116C 1249.5,119.333 1250.83,122 1253.5,124C 1327.44,125.324 1401.44,125.991 1475.5,126C 1504.68,130.487 1522.85,146.987 1530,175.5C 1531.46,184.12 1531.8,192.787 1531,201.5C 1522.92,238.501 1513.58,275.168 1503,311.5C 1488.23,340.932 1464.73,359.099 1432.5,366C 1312.83,366.5 1193.17,366.667 1073.5,366.5C 1076.87,349.696 1080.87,333.029 1085.5,316.5C 1183.83,315.667 1282.16,315.167 1380.5,315C 1385.91,313.257 1389.74,309.757 1392,304.5C 1396.81,286.578 1401.31,268.578 1405.5,250.5C 1405.26,246.429 1403.26,243.596 1399.5,242C 1327.5,241.667 1255.5,241.333 1183.5,241C 1157.55,238.684 1139.05,225.85 1128,202.5C 1123.76,189.827 1122.43,176.827 1124,163.5C 1132.24,126.869 1141.57,90.5353 1152,54.5C 1168.07,23.5834 1193.24,5.25007 1227.5,-0.5 Z"/></g>
<g><path style="opacity:0.989" fill="#000000" d="M 1625.5,-0.5 C 1667.83,-0.5 1710.17,-0.5 1752.5,-0.5C 1740.13,52.3061 1727.13,104.973 1713.5,157.5C 1768.16,158.5 1822.83,158.833 1877.5,158.5C 1890.03,105.386 1903.03,52.3863 1916.5,-0.5C 1958.83,-0.5 2001.17,-0.5 2043.5,-0.5C 2013.01,121.796 1982.68,244.129 1952.5,366.5C 1910.17,366.5 1867.83,366.5 1825.5,366.5C 1838.17,314.5 1850.83,262.5 1863.5,210.5C 1809.16,210.167 1754.83,210.5 1700.5,211.5C 1687.73,263.081 1674.73,314.581 1661.5,366C 1619.16,366.833 1576.83,366.667 1534.5,365.5C 1565.46,243.644 1595.8,121.644 1625.5,-0.5 Z"/></g>
<g><path style="opacity:0.991" fill="#000000" d="M 107.5,0.5 C 221.834,0.333335 336.167,0.500001 450.5,1C 488.886,9.74116 507.386,33.9078 506,73.5C 502.084,96.1652 496.75,118.499 490,140.5C 471.699,182.739 439.865,207.906 394.5,216C 385.5,216.333 376.5,216.667 367.5,217C 394.368,266.374 421.034,315.874 447.5,365.5C 406.5,366.833 365.5,366.833 324.5,365.5C 297.833,316.167 271.167,266.833 244.5,217.5C 223.268,216.174 202.102,216.174 181,217.5C 168.515,266.775 156.348,316.108 144.5,365.5C 102.167,365.5 59.8333,365.5 17.5,365.5C 47.3426,243.796 77.3426,122.13 107.5,0.5 Z M 222.5,48.5 C 267.206,48.026 311.872,48.526 356.5,50C 370.849,54.35 379.683,63.85 383,78.5C 383.386,94.6375 380.719,110.304 375,125.5C 363.466,150.04 344.299,164.206 317.5,168C 276.168,168.5 234.835,168.667 193.5,168.5C 203.482,128.572 213.149,88.572 222.5,48.5 Z"/></g>
<g><path style="opacity:0.992" fill="#000000" d="M 569.5,0.5 C 613.167,0.5 656.833,0.5 700.5,0.5C 676.522,96.413 652.855,192.413 629.5,288.5C 631.174,303.673 639.508,312.506 654.5,315C 695.825,314.652 737.159,314.485 778.5,314.5C 804.294,209.785 830.294,105.118 856.5,0.5C 900.167,0.5 943.833,0.5 987.5,0.5C 957.167,122.5 926.833,244.5 896.5,366.5C 782.833,366.667 669.166,366.5 555.5,366C 523.006,361.838 503.839,343.671 498,311.5C 497.333,304.5 497.333,297.5 498,290.5C 521.523,193.743 545.356,97.0768 569.5,0.5 Z"/></g>
<g><path style="opacity:0.973" fill="#000000" d="M 1045.5,90.5 C 1059.79,88.44 1071.96,92.44 1082,102.5C 1089.02,116.265 1087.36,128.931 1077,140.5C 1061.32,155.946 1042.82,160.78 1021.5,155C 1005.3,147.093 1000.47,134.593 1007,117.5C 1015.81,102.686 1028.64,93.686 1045.5,90.5 Z"/></g>
<g><path style="opacity:0.974" fill="#000000" d="M 1013.5,209.5 C 1020.17,209.334 1026.84,209.5 1033.5,210C 1052.6,215.026 1059.77,227.192 1055,246.5C 1045.19,265.675 1029.35,275.675 1007.5,276.5C 995.217,276.698 985.384,272.031 978,262.5C 972.494,250.405 973.828,239.072 982,228.5C 990.63,218.94 1001.13,212.607 1013.5,209.5 Z"/></g>
</svg>
